<svg width="60" height="60" viewBox="0 0 60 60" fill="none" xmlns="http://www.w3.org/2000/svg">
<path d="M42.5 20V15C42.5 10.285 42.5 7.93 41.035 6.465C39.57 5 37.215 5 32.5 5H27.5C22.785 5 20.43 5 18.965 6.465C17.5 7.93 17.5 10.285 17.5 15V20" stroke="#E2C112" stroke-width="3"/>
<path d="M49.4846 27.5775C49.4847 26.2299 49.1215 24.9071 48.4335 23.7483C47.7454 22.5896 46.7579 21.6376 45.5746 20.9925L33.5896 14.4575C32.4883 13.8571 31.254 13.5425 29.9996 13.5425C28.7453 13.5425 27.511 13.8571 26.4096 14.4575L14.4246 20.9925C13.2414 21.6376 12.2539 22.5896 11.5658 23.7483C10.8778 24.9071 10.5146 26.2299 10.5146 27.5775V39.9225C10.5146 41.2702 10.8778 42.5929 11.5658 43.7517C12.2539 44.9105 13.2414 45.8624 14.4246 46.5075L26.4096 53.0425C27.511 53.6429 28.7453 53.9575 29.9996 53.9575C31.254 53.9575 32.4883 53.6429 33.5896 53.0425L45.5746 46.5075C46.7579 45.8624 47.7454 44.9105 48.4335 43.7517C49.1215 42.5929 49.4847 41.2702 49.4846 39.9225V37.5" stroke="#E2C112" stroke-width="3" stroke-linecap="round"/>
<path d="M27.8647 28.8075C28.8147 27.1025 29.2897 26.25 29.9997 26.25C30.7097 26.25 31.1847 27.1025 32.1347 28.8075L32.3797 29.2475C32.6497 29.7325 32.7847 29.9725 32.9947 30.135C33.2072 30.2925 33.4697 30.3525 33.9947 30.4725L34.4697 30.58C36.3147 30.9975 37.2372 31.205 37.4572 31.9125C37.6772 32.6175 37.0472 33.3525 35.7897 34.8225L35.4647 35.2025C35.1072 35.6225 34.9272 35.83 34.8472 36.09C34.7672 36.35 34.7947 36.625 34.8472 37.185L34.8972 37.6925C35.0872 39.6525 35.1822 40.635 34.6097 41.07C34.0347 41.5075 33.1697 41.11 31.4422 40.315L30.9972 40.1075C30.5047 39.8825 30.2597 39.77 29.9997 39.77C29.7397 39.77 29.4947 39.8825 29.0022 40.1075L28.5572 40.315C26.8297 41.11 25.9647 41.5075 25.3897 41.07C24.8147 40.635 24.9122 39.6525 25.1022 37.6925L25.1522 37.185C25.2047 36.625 25.2322 36.3475 25.1522 36.09C25.0722 35.83 24.8922 35.6225 24.5347 35.2025L24.2097 34.8225C22.9522 33.3525 22.3222 32.6175 22.5422 31.9125C22.7622 31.205 23.6847 30.9975 25.5297 30.58L26.0047 30.4725C26.5297 30.3525 26.7922 30.2925 27.0047 30.135C27.2147 29.975 27.3497 29.7325 27.6197 29.2475L27.8647 28.8075Z" stroke="#E2C112" stroke-width="3"/>
</svg>
