<svg width="60" height="60" viewBox="0 0 60 60" fill="none" xmlns="http://www.w3.org/2000/svg">
<path d="M15.3125 8.125C14.7323 8.125 14.1759 8.35547 13.7657 8.7657C13.3555 9.17594 13.125 9.73234 13.125 10.3125V51.875H17.5V45.3125C17.5 44.5666 17.7963 43.8512 18.3238 43.3238C18.8512 42.7963 19.5666 42.5 20.3125 42.5H39.6875C40.4334 42.5 41.1488 42.7963 41.6762 43.3238C42.2037 43.8512 42.5 44.5666 42.5 45.3125V51.875H46.875V29.0625C46.875 28.4823 46.6445 27.9259 46.2343 27.5157C45.8241 27.1055 45.2677 26.875 44.6875 26.875H38.4375C37.575 26.875 36.875 26.175 36.875 25.3125V10.3125C36.875 10.0252 36.8184 9.74078 36.7085 9.47538C36.5986 9.20998 36.4374 8.96883 36.2343 8.7657C36.0312 8.56258 35.79 8.40145 35.5246 8.29151C35.2592 8.18158 34.9748 8.125 34.6875 8.125H15.3125ZM11.5625 55C10.7 55 10 54.3 10 53.4375V10.3125C10 8.90354 10.5597 7.55228 11.556 6.556C12.5523 5.55971 13.9035 5 15.3125 5H34.6875C36.0965 5 37.4477 5.55971 38.444 6.556C39.4403 7.55228 40 8.90354 40 10.3125V23.75H44.6875C46.0965 23.75 47.4477 24.3097 48.444 25.306C49.4403 26.3023 50 27.6535 50 29.0625V53.4375C50 54.3 49.3 55 48.4375 55H11.5625ZM20.625 51.875H28.4375V45.625H20.625V51.875ZM31.5625 51.875H39.375V45.625H31.5625V51.875ZM22.5 17.5C22.5 18.163 22.2366 18.7989 21.7678 19.2678C21.2989 19.7366 20.663 20 20 20C19.337 20 18.7011 19.7366 18.2322 19.2678C17.7634 18.7989 17.5 18.163 17.5 17.5C17.5 16.837 17.7634 16.2011 18.2322 15.7322C18.7011 15.2634 19.337 15 20 15C20.663 15 21.2989 15.2634 21.7678 15.7322C22.2366 16.2011 22.5 16.837 22.5 17.5ZM20 28.75C20.663 28.75 21.2989 28.4866 21.7678 28.0178C22.2366 27.5489 22.5 26.913 22.5 26.25C22.5 25.587 22.2366 24.9511 21.7678 24.4822C21.2989 24.0134 20.663 23.75 20 23.75C19.337 23.75 18.7011 24.0134 18.2322 24.4822C17.7634 24.9511 17.5 25.587 17.5 26.25C17.5 26.913 17.7634 27.5489 18.2322 28.0178C18.7011 28.4866 19.337 28.75 20 28.75ZM22.5 35C22.5 35.663 22.2366 36.2989 21.7678 36.7678C21.2989 37.2366 20.663 37.5 20 37.5C19.337 37.5 18.7011 37.2366 18.2322 36.7678C17.7634 36.2989 17.5 35.663 17.5 35C17.5 34.337 17.7634 33.7011 18.2322 33.2322C18.7011 32.7634 19.337 32.5 20 32.5C20.663 32.5 21.2989 32.7634 21.7678 33.2322C22.2366 33.7011 22.5 34.337 22.5 35ZM30 20C30.663 20 31.2989 19.7366 31.7678 19.2678C32.2366 18.7989 32.5 18.163 32.5 17.5C32.5 16.837 32.2366 16.2011 31.7678 15.7322C31.2989 15.2634 30.663 15 30 15C29.337 15 28.7011 15.2634 28.2322 15.7322C27.7634 16.2011 27.5 16.837 27.5 17.5C27.5 18.163 27.7634 18.7989 28.2322 19.2678C28.7011 19.7366 29.337 20 30 20ZM32.5 26.25C32.5 26.913 32.2366 27.5489 31.7678 28.0178C31.2989 28.4866 30.663 28.75 30 28.75C29.337 28.75 28.7011 28.4866 28.2322 28.0178C27.7634 27.5489 27.5 26.913 27.5 26.25C27.5 25.587 27.7634 24.9511 28.2322 24.4822C28.7011 24.0134 29.337 23.75 30 23.75C30.663 23.75 31.2989 24.0134 31.7678 24.4822C32.2366 24.9511 32.5 25.587 32.5 26.25ZM30 37.5C30.663 37.5 31.2989 37.2366 31.7678 36.7678C32.2366 36.2989 32.5 35.663 32.5 35C32.5 34.337 32.2366 33.7011 31.7678 33.2322C31.2989 32.7634 30.663 32.5 30 32.5C29.337 32.5 28.7011 32.7634 28.2322 33.2322C27.7634 33.7011 27.5 34.337 27.5 35C27.5 35.663 27.7634 36.2989 28.2322 36.7678C28.7011 37.2366 29.337 37.5 30 37.5ZM42.5 35C42.5 35.663 42.2366 36.2989 41.7678 36.7678C41.2989 37.2366 40.663 37.5 40 37.5C39.337 37.5 38.7011 37.2366 38.2322 36.7678C37.7634 36.2989 37.5 35.663 37.5 35C37.5 34.337 37.7634 33.7011 38.2322 33.2322C38.7011 32.7634 39.337 32.5 40 32.5C40.663 32.5 41.2989 32.7634 41.7678 33.2322C42.2366 33.7011 42.5 34.337 42.5 35Z" fill="#158056"/>
</svg>
