<svg width="60" height="60" viewBox="0 0 60 60" fill="none" xmlns="http://www.w3.org/2000/svg">
<path d="M57.0561 17.0402C60.2809 23.7724 60.88 31.4651 58.7363 38.6154C56.5926 45.7656 51.8602 51.8599 45.4635 55.7076C39.0668 59.5552 31.4653 60.8799 24.1442 59.4229C16.823 57.9658 10.308 53.8316 5.87197 47.828C1.43592 41.8243 -0.602508 34.3825 0.15489 26.9564C0.912288 19.5302 4.4111 12.6531 9.96783 7.66862C15.5246 2.68413 22.74 -0.0496994 30.2046 0.00120198C37.6692 0.0521034 44.8467 2.88408 50.3349 7.94388L57.9277 0.351102C58.0391 0.239789 58.1712 0.151491 58.3167 0.0912485C58.4621 0.0310063 58.618 0 58.7754 0C58.9328 0 59.0887 0.0310063 59.2341 0.0912485C59.3796 0.151491 59.5117 0.239789 59.623 0.351102C59.7343 0.462415 59.8226 0.594563 59.8829 0.74C59.9431 0.885438 59.9741 1.04132 59.9741 1.19874C59.9741 1.35616 59.9431 1.51204 59.8829 1.65747C59.8226 1.80291 59.7343 1.93506 59.623 2.04637L30.8691 30.8001C30.6443 31.0249 30.3394 31.1512 30.0214 31.1512C29.7035 31.1512 29.3986 31.0249 29.1738 30.8001C28.949 30.5753 28.8227 30.2704 28.8227 29.9525C28.8227 29.6345 28.949 29.3296 29.1738 29.1048L38.4589 19.8198C36.1302 17.8816 33.2048 16.8049 30.1752 16.7711C27.1456 16.7373 24.1969 17.7483 21.8255 19.6341C19.4541 21.5198 17.8048 24.165 17.1554 27.1244C16.5061 30.0837 16.8962 33.1765 18.2601 35.8818C19.6241 38.5872 21.8785 40.7401 24.6439 41.9778C27.4093 43.2156 30.5168 43.4628 33.4431 42.6777C36.3694 41.8926 38.9358 40.1232 40.7102 37.6674C42.4847 35.2116 43.3588 32.2195 43.1854 29.1947C43.1763 29.0373 43.1983 28.8798 43.2502 28.7309C43.302 28.5821 43.3827 28.445 43.4876 28.3273C43.5924 28.2097 43.7194 28.1138 43.8613 28.0453C44.0032 27.9767 44.1572 27.9368 44.3146 27.9277C44.4719 27.9187 44.6295 27.9407 44.7783 27.9925C44.9271 28.0444 45.0643 28.1251 45.1819 28.2299C45.2995 28.3348 45.3954 28.4618 45.464 28.6037C45.5325 28.7456 45.5725 28.8996 45.5815 29.0569C45.7883 32.641 44.7505 36.1865 42.6438 39.0935C40.5371 42.0005 37.4908 44.0904 34.0203 45.0096C30.5499 45.9289 26.8685 45.621 23.5989 44.1381C20.3294 42.6552 17.6726 40.0883 16.0779 36.8718C14.4833 33.6553 14.0489 29.9867 14.8481 26.4867C15.6473 22.9867 17.6311 19.8703 20.4639 17.6647C23.2966 15.4592 26.8043 14.2999 30.3934 14.3832C33.9826 14.4664 37.4328 15.787 40.1602 18.1215L48.6486 9.63616C43.3323 4.79887 36.3362 2.23028 29.1528 2.47827C21.9694 2.72625 15.1671 5.77119 10.197 10.9636C5.22696 16.156 2.48241 23.0848 2.54884 30.2722C2.61527 37.4595 5.4874 44.3364 10.5526 49.4361C15.1524 54.0187 21.2226 56.8299 27.6927 57.3739C34.1629 57.9178 40.6173 56.1596 45.9176 52.4093C51.2179 48.659 55.0237 43.1575 56.6637 36.8751C58.3037 30.5928 57.6726 23.9331 54.8816 18.0706C54.8094 17.928 54.7664 17.7725 54.7552 17.6131C54.744 17.4537 54.7648 17.2937 54.8164 17.1424C54.8679 16.9912 54.9492 16.8518 55.0555 16.7324C55.1617 16.6131 55.2908 16.5162 55.435 16.4475C55.5793 16.3787 55.7358 16.3396 55.8954 16.3322C56.0551 16.3249 56.2145 16.3496 56.3645 16.4048C56.5144 16.4601 56.6518 16.5447 56.7685 16.6539C56.8852 16.763 56.979 16.8944 57.0442 17.0402H57.0561Z" fill="#158056"/>
</svg>
