<svg width="48" height="53" viewBox="0 0 48 53" fill="none" xmlns="http://www.w3.org/2000/svg">
<path d="M2.79637 22.265C1.82637 19.58 1.34137 18.2375 1.54637 17.3775C1.77387 16.435 2.44388 15.7025 3.29888 15.4575C4.08138 15.2325 5.29888 15.775 7.73138 16.8575C9.88138 17.8125 10.9564 18.29 11.9689 18.265C13.0839 18.235 14.1539 17.79 15.0064 16.9975C15.7814 16.28 16.2989 15.1375 17.3364 12.8525L19.6239 7.8125C21.5339 3.605 22.4889 1.5 24.0014 1.5C25.5139 1.5 26.4689 3.605 28.3789 7.8125L30.6664 12.8525C31.7039 15.1375 32.2239 16.28 32.9964 16.9975C33.8489 17.7875 34.9214 18.235 36.0339 18.265C37.0439 18.29 38.1214 17.8125 40.2714 16.855C42.7064 15.775 43.9214 15.2325 44.7039 15.4575C45.5589 15.7025 46.2289 16.435 46.4539 17.3775C46.6614 18.2375 46.1764 19.5775 45.2039 22.265L41.0364 33.805C39.2514 38.7425 38.3614 41.21 36.4939 42.605C34.6264 44 32.2139 44 27.3914 44H20.6114C15.7864 44 13.3764 44 11.5114 42.605C9.64388 41.21 8.75137 38.7425 6.96637 33.805L2.79637 22.265Z" stroke="#1D4ED8" stroke-width="3"/>
<path d="M24.001 31.5H24.0235" stroke="#1D4ED8" stroke-width="4" stroke-linecap="round" stroke-linejoin="round"/>
<path d="M11.501 51.5H36.501" stroke="#1D4ED8" stroke-width="3" stroke-linecap="round"/>
</svg>
