<svg width="36" height="53" viewBox="0 0 36 53" fill="none" xmlns="http://www.w3.org/2000/svg">
<path d="M24.68 22.613L34 1.50049M12.29 23.0805L1.5 1.50049M20.905 21.6205L11.0875 1.50049M24.9 1.50049L22.3 7.75049M4 36.5005C4 40.4787 5.58035 44.294 8.3934 47.1071C11.2064 49.9201 15.0218 51.5005 19 51.5005C22.9782 51.5005 26.7936 49.9201 29.6066 47.1071C32.4196 44.294 34 40.4787 34 36.5005C34 32.5222 32.4196 28.7069 29.6066 25.8939C26.7936 23.0808 22.9782 21.5005 19 21.5005C15.0218 21.5005 11.2064 23.0808 8.3934 25.8939C5.58035 28.7069 4 32.5222 4 36.5005Z" stroke="#8E8E93" stroke-width="3" stroke-linecap="round" stroke-linejoin="round"/>
<path d="M15.25 34.0005L20.25 30.2505V42.7505" stroke="#8E8E93" stroke-width="3" stroke-linecap="round" stroke-linejoin="round"/>
</svg>
