<svg width="60" height="60" viewBox="0 0 60 60" fill="none" xmlns="http://www.w3.org/2000/svg">
<path d="M55 30C55 30 47.5 47.5 30 47.5C12.5 47.5 5 30 5 30C5 30 12.5 12.5 30 12.5C46.25 12.5 55 30 55 30Z" stroke="#158056" stroke-width="3.75" stroke-linejoin="round"/>
<path d="M29.193 21.6925C29.2795 21.5567 29.3988 21.445 29.54 21.3675C29.6811 21.2901 29.8395 21.2495 30.0005 21.2495C30.1614 21.2495 30.3198 21.2901 30.461 21.3675C30.6021 21.445 30.7215 21.5567 30.808 21.6925L31.898 23.405C33.1 25.2982 34.7048 26.9029 36.598 28.105L38.308 29.1925C38.4437 29.279 38.5555 29.3983 38.6329 29.5395C38.7103 29.6806 38.7509 29.839 38.7509 30C38.7509 30.161 38.7103 30.3193 38.6329 30.4605C38.5555 30.6016 38.4437 30.721 38.308 30.8075L36.5955 31.8975C34.7023 33.0995 33.0975 34.7043 31.8955 36.5975L30.808 38.3075C30.7215 38.4432 30.6021 38.555 30.461 38.6324C30.3198 38.7098 30.1614 38.7504 30.0005 38.7504C29.8395 38.7504 29.6811 38.7098 29.54 38.6324C29.3988 38.555 29.2795 38.4432 29.193 38.3075L28.103 36.595C26.9009 34.7018 25.2961 33.097 23.403 31.895L21.693 30.8075C21.5572 30.721 21.4454 30.6016 21.368 30.4605C21.2906 30.3193 21.25 30.161 21.25 30C21.25 29.839 21.2906 29.6806 21.368 29.5395C21.4454 29.3983 21.5572 29.279 21.693 29.1925L23.4055 28.1025C25.2986 26.9004 26.9034 25.2957 28.1055 23.4025L29.193 21.6925Z" stroke="#158056" stroke-width="3.75" stroke-linejoin="round"/>
</svg>
